<svg width="128" height="128" viewBox="0 0 128 128" fill="none" xmlns="http://www.w3.org/2000/svg">
<g clip-path="url(#clip0_7_144)">
<path d="M126.336 62.46L121.02 59.168C120.984 58.644 120.94 58.124 120.876 57.628L125.44 53.376C126.416 52.436 126.084 50.788 124.832 50.316L118.996 48.144C118.852 47.628 118.708 47.124 118.544 46.624L122.164 41.584C122.98 40.48 122.336 38.94 120.98 38.708L114.832 37.704C114.604 37.244 114.352 36.788 114.108 36.328L116.688 30.664C116.96 30.084 116.896 29.416 116.544 28.892C116.188 28.368 115.584 28.06 114.96 28.08L108.708 28.308C108.392 27.888 108.064 27.492 107.728 27.096L109.168 21.032C109.476 19.7 108.292 18.516 106.96 18.824L100.896 20.264C100.5 19.928 100.108 19.596 99.6841 19.284L99.9121 13.032C99.9761 11.676 98.5561 10.724 97.3321 11.304L91.6681 13.884C91.2081 13.64 90.7521 13.388 90.2721 13.16L89.2681 7.01197C89.0401 5.67997 87.4961 5.03197 86.3921 5.82797L81.3521 9.44797C80.8521 9.28397 80.3481 9.13997 79.8521 8.99597L77.6601 3.18397C77.1841 1.90797 75.5361 1.57997 74.6201 2.55597L70.3681 7.14397C69.8521 7.07997 69.3281 7.01597 68.8041 6.97997L65.5361 1.68397C64.8281 0.519974 63.1401 0.519974 62.4321 1.68397L59.1401 6.97997C58.6161 7.01597 58.1001 7.07997 57.6001 7.14397L53.3481 2.55597C52.4081 1.57997 50.7681 1.88797 50.2881 3.18397L48.1161 8.99597C47.6001 9.13997 47.1201 9.30397 46.5961 9.44797L41.5561 5.82797C40.4521 5.03197 38.9121 5.67997 38.6801 7.01197L37.6761 13.16C37.2161 13.388 36.7641 13.64 36.3041 13.884L30.6361 11.304C29.3881 10.744 27.9921 11.676 28.0561 13.032L28.2641 19.284C27.8681 19.6 27.4681 19.928 27.0761 20.264L20.9961 18.824C19.6801 18.516 18.4961 19.7 18.8041 21.032L20.2241 27.096C19.8881 27.492 19.5801 27.884 19.2441 28.308L13.0161 28.08C11.6441 28.036 10.7281 29.436 11.2881 30.66L13.8761 36.324C13.6241 36.784 13.3761 37.24 13.1241 37.7L6.98007 38.704C5.64807 38.932 5.01607 40.476 5.79207 41.58L9.44007 46.62C9.26807 47.144 9.12407 47.624 8.98007 48.14L3.14407 50.312C1.87607 50.788 1.56007 52.436 2.54007 53.372L7.10007 57.624C7.03607 58.12 6.99207 58.644 6.95607 59.164L1.64407 62.456C0.476066 63.144 0.476066 64.852 1.64407 65.54L6.95607 68.832C6.99207 69.356 7.03607 69.876 7.10007 70.372L2.54007 74.644C1.53607 75.56 1.87207 77.208 3.14407 77.684L8.98007 79.876C9.12407 80.372 9.26807 80.872 9.44007 81.376L5.79207 86.416C5.00407 87.52 5.64807 89.084 6.99607 89.292L13.1441 90.296C13.3721 90.756 13.6241 91.212 13.8761 91.672L11.2881 97.336C10.7281 98.584 11.6681 99.98 13.0161 99.916L19.2441 99.708C19.5801 100.108 19.8881 100.504 20.2481 100.896L18.8081 106.98C18.5001 108.292 19.6841 109.476 21.0001 109.168L27.0801 107.748C27.4761 108.084 27.8761 108.392 28.2921 108.728L28.0641 114.956C28.0001 116.328 29.4201 117.264 30.6441 116.684L36.3121 114.104C36.7721 114.348 37.2241 114.6 37.6841 114.852L38.7081 121C38.9161 122.332 40.4561 122.956 41.5601 122.184L46.6201 118.54C47.1201 118.704 47.6241 118.848 48.1201 118.992L50.3121 124.828C50.7721 126.12 52.4121 126.432 53.3521 125.436L57.6041 120.872C58.1201 120.936 58.6241 121 59.1441 121.036L62.4361 126.348C63.1441 127.496 64.8321 127.496 65.5401 126.348L68.8321 121.036C69.3561 121 69.8561 120.936 70.3721 120.872L74.6241 125.436C75.5641 126.412 77.1881 126.104 77.6641 124.828L79.8561 118.992C80.3521 118.848 80.8521 118.704 81.3561 118.54L86.3961 122.184C87.5001 122.996 89.0641 122.332 89.2721 121L90.2761 114.852C90.7561 114.6 91.2161 114.352 91.6721 114.104L97.3361 116.684C98.5641 117.244 99.9601 116.312 99.9161 114.956L99.6881 108.728C100.108 108.392 100.504 108.084 100.876 107.748L106.96 109.168C108.272 109.476 109.456 108.292 109.168 106.98L107.728 100.896C108.064 100.5 108.396 100.108 108.708 99.708L114.96 99.916C116.316 99.98 117.248 98.584 116.688 97.336L114.108 91.672C114.352 91.212 114.604 90.756 114.832 90.296L120.98 89.292C122.312 89.064 122.96 87.52 122.164 86.416L118.544 81.376L118.996 79.876L124.808 77.684C126.104 77.208 126.412 75.56 125.436 74.644L120.872 70.372C120.916 69.876 120.98 69.352 121.016 68.832L126.332 65.54C127.496 64.852 127.496 63.144 126.332 62.456L126.336 62.46ZM90.8121 106.46C85.9161 105.42 87.4801 98.064 92.3961 99.104C94.4161 99.54 95.7081 101.54 95.2721 103.584C94.8361 105.604 92.8361 106.896 90.8121 106.46V106.46ZM89.0201 94.272C87.1681 93.876 85.3361 95.06 84.9601 96.916L83.0601 105.684C77.2481 108.328 70.7881 109.812 64.0001 109.812C57.2681 109.812 50.6241 108.352 44.5441 105.52L42.6441 96.732C42.2481 94.876 40.4361 93.688 38.5801 94.108L30.8321 95.752C29.3761 94.276 28.0441 92.692 26.8121 91.02H64.5841C65.0041 91.02 65.2921 90.96 65.2921 90.56V77.212C65.2921 76.812 65.0041 76.752 64.5841 76.752H53.5241V68.272H65.4801C66.5641 68.272 71.3161 68.58 72.8121 74.644C73.2921 76.5 74.3361 82.56 75.0401 84.5C75.7481 86.688 78.6441 91.016 81.7281 91.016H100.544C100.772 91.016 101.004 90.996 101.228 90.956C99.9361 92.728 98.5041 94.412 96.9601 95.976L89.0201 94.272ZM36.7881 106.292C34.7521 106.708 32.7521 105.416 32.3121 103.396C31.8761 101.352 33.1641 99.352 35.2081 98.936C37.2241 98.5 39.2241 99.788 39.6681 101.812C40.1041 103.856 38.8081 105.856 36.7881 106.292V106.292ZM22.4601 48.188C23.3761 50.108 22.5441 52.396 20.6041 53.272C18.6681 54.124 16.3961 53.212 15.5841 51.252C13.7481 46.756 20.3521 43.816 22.4601 48.192V48.188ZM18.0641 58.624L26.1441 55.04C27.8761 54.272 28.6441 52.252 27.8761 50.524L26.2081 46.752H32.7721V76.272H19.5601C17.9321 70.544 17.4161 64.544 18.0601 58.624H18.0641ZM53.5401 55.772V47.064H69.1241C69.9361 47.064 74.8081 48.004 74.8081 51.652C74.8081 54.692 71.0601 55.776 67.9961 55.776L53.5401 55.772ZM110.208 63.604C110.208 64.752 110.164 65.892 110.084 67.016H105.332C104.852 67.016 104.664 67.332 104.664 67.812V69.976C104.664 75.1 101.788 76.204 99.2441 76.5C96.8281 76.772 94.1601 75.496 93.8321 74.02C92.4121 66.02 90.0401 64.312 86.2921 61.352C90.9361 58.392 95.7681 54.06 95.7681 48.228C95.7681 41.936 91.4521 37.976 88.5201 36.04C84.3921 33.308 79.8321 32.772 78.6001 32.772H29.5801C36.3481 25.188 45.4361 20.064 55.4161 18.164L61.2081 24.248C62.5001 25.604 64.6841 25.66 66.0401 24.348L72.5001 18.16C85.8561 20.66 97.4161 28.892 104.144 40.684L99.7081 50.684C98.9601 52.412 99.7281 54.432 101.456 55.208L109.98 58.996C110.124 60.52 110.188 62.04 110.188 63.604H110.208ZM61.2121 13.02C64.8321 9.56397 70.0241 15 66.3961 18.46C62.7921 21.584 57.9361 16.48 61.2121 13.02ZM105.148 48.372C105.98 46.48 108.188 45.624 110.088 46.456C113.172 47.812 113.064 52.204 109.94 53.416C106.792 54.62 103.776 51.436 105.152 48.372H105.148Z" fill="white"/>
</g>
<defs>
<clipPath id="clip0_7_144">
<rect width="128" height="128" fill="white"/>
</clipPath>
</defs>
</svg>
